<svg id="Calque_1" data-name="Calque 1" xmlns="http://www.w3.org/2000/svg" viewBox="0 0 470.63 352.09"><title>pt_logo_final</title><path d="M498.62,123.59h59.92a95.72,95.72,0,0,1,95.72,95.72v0a0,0,0,0,1,0,0H594.34a95.72,95.72,0,0,1-95.72-95.72v0A0,0,0,0,1,498.62,123.59Z" transform="translate(969.25 219.31) rotate(180)" style="fill:#1B5734"/><path d="M183.63,236h59.92a95.72,95.72,0,0,1,95.72,95.72v0a0,0,0,0,1,0,0H279.35A95.72,95.72,0,0,1,183.63,236v0A0,0,0,0,1,183.63,236Z" transform="translate(339.27 444.17) rotate(-180)" style="fill:#1B5734"/><path d="M183.63,123.59H481.89a0,0,0,0,1,0,0v0a95.72,95.72,0,0,1-95.72,95.72H196.59a13,13,0,0,1-13-13V123.59A0,0,0,0,1,183.63,123.59Z" transform="translate(481.89 219.31) rotate(180)" style="fill:#1B5734"/><path d="M306.12,299.92H562.5a0,0,0,0,1,0,0v0a95.15,95.15,0,0,1-95.15,95.15H306.12a0,0,0,0,1,0,0V299.92A0,0,0,0,1,306.12,299.92Z" transform="translate(598.18 -210.4) rotate(90)" style="fill:#1B5734"/></svg>