<svg xmlns="http://www.w3.org/2000/svg" viewBox="0 0 64 64"><defs><style>.cls-1,.cls-2{fill:none;stroke:#1B5734;stroke-width:2.5px;}.cls-1{stroke-miterlimit:10;}.cls-2{stroke-linejoin:round;}</style></defs><title>PictoR.S. Google MyBusiness (svg)</title><g id="Groupe_R.S._MyBusiness_svg" data-name="Groupe R.S. MyBusiness svg"><path id="G" class="cls-1" d="M52.46,41.67a7.69,7.69,0,1,0,1.9,5.48h-7"/><path id="vitrine" class="cls-2" d="M4.29,30.58V57.5a2.43,2.43,0,0,0,2.63,2.14H57.17A2.43,2.43,0,0,0,59.8,57.5V30.58"/><g id="toiture"><path id="demi_cercle_4" data-name="demi cercle 4" class="cls-2" d="M62.5,24.48a7.62,7.62,0,0,1-15.23,0,4.77,4.77,0,0,1,0-.76H60.49A1.62,1.62,0,0,0,62.1,22,7.69,7.69,0,0,1,62.5,24.48Z"/><path id="demi_cercle_3" data-name="demi cercle 3" class="cls-2" d="M47.27,24.48a7.61,7.61,0,0,1-15.22,0,6.33,6.33,0,0,1,.05-.76H47.23A6.34,6.34,0,0,1,47.27,24.48Z"/><path id="demi_cercle_2" data-name="demi cercle 2" class="cls-2" d="M32,24.68a7.62,7.62,0,1,1-15.17-1h15.1A7.61,7.61,0,0,1,32,24.68Z"/><path id="demi_cercle_1" data-name="demi cercle 1" class="cls-2" d="M16.73,24.68a7.62,7.62,0,1,1-15.23,0A7.27,7.27,0,0,1,2,22,1.59,1.59,0,0,0,3.6,23.72H16.66A6.11,6.11,0,0,1,16.73,24.68Z"/><line id="barre_droite" data-name="barre droite" class="cls-2" x1="47.23" y1="23.72" x2="44.37" y2="4.36"/><line id="barre_centrale" data-name="barre centrale" class="cls-2" x1="31.89" y1="23.72" x2="31.89" y2="4.36"/><line id="barre_gauche" data-name="barre gauche" class="cls-2" x1="16.66" y1="23.72" x2="19.42" y2="4.36"/><path id="cadre" class="cls-2" d="M62.1,22a1.62,1.62,0,0,1-1.61,1.7H3.6A1.59,1.59,0,0,1,2,22a.9.9,0,0,1,0-.28l4-14.3a4.16,4.16,0,0,1,4-3h44a4.17,4.17,0,0,1,4,3l4,14.29A1.35,1.35,0,0,1,62.1,22Z"/></g></g></svg>