<svg xmlns="http://www.w3.org/2000/svg" viewBox="0 0 64 64"><defs><style>.cls-1{fill:none;stroke:#1B5734;stroke-miterlimit:10;stroke-width:3px;}</style></defs><title>PictoPanier (svg)</title><g id="Groupe_Panier_svg" data-name="Groupe Panier svg"><g id="panier_complet" data-name="panier complet"><path id="panier" class="cls-1" d="M62.07,21.5,54.78,55.2a1.65,1.65,0,0,1-1.61,1.3H10.83a1.65,1.65,0,0,1-1.61-1.3L1.93,21.5a1.66,1.66,0,0,1,1.62-2h56.9A1.66,1.66,0,0,1,62.07,21.5Z"/><line id="trait_central" data-name="trait central" class="cls-1" x1="6" y1="38.5" x2="58" y2="38.5"/><path id="anse" class="cls-1" d="M43,18.5c0,.34,0,37.67,0,38H21.05c0-.33-.05-37.66-.05-38a11,11,0,0,1,22,0Z"/></g></g></svg>