<svg xmlns="http://www.w3.org/2000/svg" viewBox="0 0 64 64"><defs><style>.cls-1{fill:none;stroke:#1B5734;stroke-miterlimit:10;stroke-width:3px;}</style></defs><title>PictoHome (svg)</title><g id="Groupe_Home_svg" data-name="Groupe Home svg"><path id="maison" class="cls-1" d="M56.5,23.42V56.59c0,2.49-2.5,4.52-5.61,4.52H41.5a2.76,2.76,0,0,1-2.75-2.76V43.48a5.19,5.19,0,0,0-5.2-5.19H29.22A5.19,5.19,0,0,0,24,43.48V58.35a2.76,2.76,0,0,1-2.75,2.76H13.11c-3.11,0-5.61-2-5.61-4.52V23.42a4,4,0,0,1,1.43-3L26,5.11a9.25,9.25,0,0,1,12,0L55.07,20.4A4,4,0,0,1,56.5,23.42Z"/></g></svg>